<svg xmlns="http://www.w3.org/2000/svg" xmlns:xlink="http://www.w3.org/1999/xlink" viewBox="0 0 161.22 56.44"><defs><style>.a{fill:none;}.b{fill:#2b2e34;}.c{fill:url(#a);}</style><linearGradient id="a" x1="1.76" y1="53.92" x2="121.39" y2="-21.84" gradientUnits="userSpaceOnUse"><stop offset="0.26" stop-color="#07bcd2"/><stop offset="0.41" stop-color="#78c86e"/><stop offset="0.52" stop-color="#a2cf44"/><stop offset="0.61" stop-color="#a2cf44"/><stop offset="0.75" stop-color="#a2cf44"/></linearGradient></defs><title>ki.nrw-logo</title><rect class="a" x="0.01" width="161.21" height="56.44"/><path class="b" d="M19.79,53.89,11.28,41,8.07,44.55v9.34c0,.63-.29.92-.87.92H.92A.79.79,0,0,1,0,54.16a.62.62,0,0,1,0-.27V21.69a.79.79,0,0,1,.65-.92.61.61,0,0,1,.27,0H7.2c.58,0,.87.29.87.92V33.61l10.41-12a2.24,2.24,0,0,1,1.8-.88h8.17c.54,0,.63.44.24.92L17.17,35.21,29.52,53.89c.29.49.15.92-.48.92H21.45a1.76,1.76,0,0,1-1.66-.92" transform="translate(0.01)"/><path class="b" d="M149.15,54.28l-8.42-30.2-8.46,30.2a.57.57,0,0,1-.61.54h-1.82c-.44,0-.63-.14-.73-.53l-8.75-33c-.1-.34,0-.54.44-.54h1.31a.65.65,0,0,1,.68.54l8,30.15,8.47-30.2a.61.61,0,0,1,.68-.49h1.65a.61.61,0,0,1,.68.49l8.47,30.2,8-30.15c.1-.34.24-.54.63-.54h1.36c.44,0,.54.2.39.54l-8.7,33c-.15.39-.24.53-.73.53h-1.7c-.49,0-.68-.14-.78-.53M96.37,40.18h7.54c5.78,0,9.19-4.09,9.19-8.66s-3.46-8.65-9.19-8.65H96.37Zm18.72,14.63h-1.41a1.11,1.11,0,0,1-.93-.48l-9.1-12.06H96.36V54.33c0,.34-.15.48-.49.48H94.66c-.34,0-.49-.14-.49-.48V21.26a.44.44,0,0,1,.38-.49h9.59c6.37,0,11.19,4.47,11.19,10.75a10.51,10.51,0,0,1-9.2,10.5l9.24,12.21c.3.34.2.58-.29.58m-32.75-.49L61.86,24.8V54.33c0,.34-.15.48-.49.48H60.15c-.34,0-.48-.14-.48-.48V21.26c0-.34.14-.49.48-.49h1.22a.82.82,0,0,1,.83.49L82.67,50.78V21.26c0-.34.15-.49.49-.49h1.22c.34,0,.48.15.48.49V54.33c0,.34-.14.48-.48.48H83.17a.88.88,0,0,1-.83-.48" transform="translate(0.01)"/><path class="c" d="M34.38,8a8,8,0,0,0,8,8h0a8,8,0,0,0,8-8h0a8,8,0,0,0-8-8h0a8,8,0,0,0-8,8m7.93,11.17a8,8,0,0,0-8,8h0c0,4.41,4,7.74,4,10.67h0c0,2.93-4,6.3-4,10.67h0a8,8,0,0,0,8,8h0a8,8,0,0,0,8-8h0c0-4.38-4-7.75-4-10.68h0c0-2.93,4-6.26,4-10.67h0a8,8,0,0,0-8-8Z" transform="translate(0.01)"/></svg>